<?xml version="1.0" encoding="utf-8"?>
<!-- Generator: Adobe Illustrator 21.0.2, SVG Export Plug-In . SVG Version: 6.00 Build 0)  -->
<svg version="1.1" id="레이어_1" xmlns="http://www.w3.org/2000/svg" xmlns:xlink="http://www.w3.org/1999/xlink" x="0px"
	 y="0px" viewBox="0 0 1280 1024" style="enable-background:new 0 0 1280 1024;" xml:space="preserve">
<style type="text/css">
	.st0{fill:#563700;}
</style>
<g>
	<path class="st0" d="M266.1,254c-2.3,5.8-6.4,13.4-9.3,18.6c66.3,4.1,101.7,34.9,101.7,89.5c0,48.8-26.7,75-77.9,84.3l-2.3,46.5
		c45.3-8.1,90.1-19.8,124.4-33.1V247.7c0-15.1-15.7-31.4-37.2-37.2c-12.2-3.5-5.2-9.9,9.3-11.6c22.1-2.3,87.8,13.9,102.3,19.8
		c15.1,5.2,18.6,8.1,17.4,11c-1.7,2.9-5.8,11-5.8,28.5v145.3c34.3-13.4,34.3-26.2,75.6-26.7c23.2,0,43,13.9,46.5,30.2
		c4.7,23.8-9.9,50-36.6,50c-29.6,1.2-55.8-18-85.4-19.8v106.4c0,18-40.7,30.8-64.5,30.8c-19.2,0-21.5-6.4-21.5-14.5v-83.1
		c-11.6,10.5-38.4,22.7-51.1,28.5c-47.7,22.1-141.2,45.3-183.1,52.3c-20.3,4.1-22.1,13.4-25,13.4c-13.9,0-65.1-34.9-79-49.4
		c-8.1-8.7-10.5-19.8-2.3-19.8c9.9,2.3,23.8,5.8,64.5,5.8c21.5,0,47.1-1.2,73.8-4.1l-2.3-55.2c-55.8-7.6-84.9-35.5-84.9-86
		c0-55.2,35.5-83.1,104-88.9c1.2-4.1,1.7-8.1,1.2-11.6c-0.6-5.2-8.7-8.7-15.7-10.5c-5.8-1.2-0.6-9.9,13.4-9.9
		C233.5,241.3,268.4,247.7,266.1,254z M205,608c0-15.1-5.2-19.8-27.9-22.1c-12.8-1.2-6.4-8.7,7.6-13.4c21.5-5.8,80.8-1.2,96.5,1.7
		c15.7,2.9,19.8,4.7,18.6,8.1c-0.6,2.3-2.9,11-2.9,28.5v51.7c0,13.9,4.7,15.1,17.4,15.1c12.2,0,105.2-1.2,123.2-4.7
		c15.1-2.9,29.1-39.5,40.7-39.5c19.2,0,55.8,27.9,55.8,49.4c0,16.3-16.9,15.7-36.6,15.7C448,699.2,340.4,701,269,701
		c-37.8,0-60.4-5.8-62.2-49.4L205,608z M236.4,423.2c22.7,0,37.8-22.7,37.8-62.8c0-41.3-15.1-62.8-37.8-62.8
		c-22.7,0-37.8,21.5-37.8,62.8C198.6,400.5,213.8,423.2,236.4,423.2z"/>
	<path class="st0" d="M898.4,482.5c-15.1,10.5-51.7,13.9-63.3-21.5c-11.6-29.1-11.6-47.7-22.1-65.7c-33.7,45.3-79,84.3-142.4,105.8
		c-4.6,1.7-29.6,8.1-41.3,8.1c-14.5,0-15.1-6.4-9.3-9.9c96.5-56.4,137.2-166.8,154-206.9c2.3-5.2,5.2-15.1-27.3-33.1
		c-14.5-8.1-7.6-11,4.7-11.6c30.8-1.7,98.8,20.3,117.4,29.6c15.7,9.3,7,11-1.7,24.4c-10.5,22.7-22.1,45.3-36,67.4
		c27.3,9.3,59.9,26.2,73.2,44.2C922.2,440,915.3,468.5,898.4,482.5z M906,531.3c1.2-3.5,1.7-7,1.2-9.9c-0.6-4.6-9.9-8.1-15.7-9.9
		c-7-1.2-0.6-11,13.4-11c17.4,0,51.7,7.6,49.4,13.4c-2.3,5.2-5.2,12.2-8.7,17.4c65.1,2.9,113.9,27.3,113.9,86.6
		c0,65.1-58.7,85.4-133.7,86c-76.7,1.2-134.3-20.9-134.3-86C791.5,558.6,839.1,535.9,906,531.3z M925.7,682.4
		c27.3,0,47.7-17.4,47.7-66.3c0-49.4-20.3-66.8-47.7-66.8c-27.9,0-47.7,17.4-47.7,66.8C878.1,664.9,897.8,682.4,925.7,682.4z
		 M1069.3,474.9c0,18-40.7,30.8-64.5,30.8c-19.2,0-21.5-6.4-21.5-14.5V379.6c-26.7,0.6-37.2,1.7-44.2,2.3
		c-12.8,1.2-13.4,6.4-15.1,6.4c-6.4,0-25-13.9-30.8-23.2c-4.7-6.4-4.1-9.9,0-9.9c3.5,0.6,4.7,2.3,29.1,4.1c11,1.2,41.3,0.6,61,0
		V247.1c0-15.1-15.7-31.4-37.2-37.2c-12.2-2.9-5.2-9.9,9.3-11.6c22.7-2.3,87.8,13.9,102.3,19.8c15.1,5.2,18.6,8.1,17.4,11
		c-1.7,2.9-5.8,11-5.8,28.5V474.9z"/>
	<path class="st0" d="M1264,650.4c0,25-21.5,45.9-51.1,45.9c-29.6,0-50.6-20.9-50.6-45.9c0-27.9,20.9-48.8,51.7-48.8
		C1242.5,601.6,1264,622.5,1264,650.4z"/>
</g>
</svg>
