<?xml version="1.0" encoding="utf-8"?>
<!-- Generator: Adobe Illustrator 21.0.2, SVG Export Plug-In . SVG Version: 6.00 Build 0)  -->
<svg version="1.1" id="레이어_1" xmlns="http://www.w3.org/2000/svg" xmlns:xlink="http://www.w3.org/1999/xlink" x="0px"
	 y="0px" viewBox="0 0 1280 1024" style="enable-background:new 0 0 1280 1024;" xml:space="preserve">
<style type="text/css">
	.st0{fill:#563700;}
</style>
<g>
	<path class="st0" d="M391.4,296.3l-0.9-14.3c-19.4-1.6-27.5-7.1-27.5-17.8c0-13,11.5-18.7,40-18.7c28.2,0,39.8,5.6,39.8,18.7
		c0,10.6-7.9,16-26.3,17.6l-0.9,14.1l34.9-0.5c7.9-0.2,11.1-12,16.6-12c3,0,13.6,7.6,15.3,14.1c1.4,4.9-1.2,6.5-6.7,6.2
		c-38.6-2.1-106.3-1.2-127.7,1.4c-8.3,1.1-7.8,3.9-9.5,3.9c-4.2,0-17.6-6.2-21.2-10.9c-1.6-2.3-1.4-3.7,0.4-3.5
		c2.6,0.4,9.3,2.5,22.9,2.3L391.4,296.3z M442.2,222c3,0,11.8,5.3,13.6,10.8c1.4,4.9-1.2,6.5-6.9,6.2c-31.2-2.3-62.1-1.4-75.8,0
		c-7.4,0.7-6.9,3.5-8.8,3.5c-3.7,0-15.3-5.6-18.7-10.1c-1.4-1.8-1.6-3.2,0.4-3c2.1,0.2,8.1,2.5,20.6,2.3c21.3-0.4,46.4-0.4,60.8-0.7
		C434.4,230.9,436.6,222,442.2,222z M364.1,326.4c-0.4-4.1-2.1-6.3-9.2-7.1c-4.2-0.4-1.2-4.1,3.2-4.8c6.2-1.1,22.6-0.2,27.5,0.7
		c3.5,0.7,5.3,1.2,5.8,1.9c7.1,0,22.9-0.4,27.3-0.9c4.2-0.5,7.2-5.6,8.5-6.7c3-2.1,23.4,6.3,25.4,8.8c1.9,2.3-3.5,4.8-4.6,7.2
		l-5.8,19.4c3.4,1.1,6.2,2.6,6.2,5.1c0,3.9-4.4,3.7-9.5,3.7c-14.6,0-38.6,0-49,0.4c-4.8,3.9-22,7.8-22.4,2.1L364.1,326.4z
		 M377.1,209.2c-4.9-5.1-5.8-8.5,1.2-6c8.8,3.4,19,2.8,33.1,2.3c9.9-0.7,18.2,3.2,14.5,12.3c-2.5,5.6-10.9,7.1-19.7,6.2
		C393.4,222.8,385.2,217.5,377.1,209.2z M403.1,275.6c9,0,14.1-3.4,14.1-12s-5.1-12-14.1-12c-9.3,0-13.9,3.4-13.9,12
		C389.1,272.3,393.7,275.6,403.1,275.6z M390.4,323.8v3.7l0.5,20.3c6.2,0,20.6,0,28.4-0.4l0.9-24.3L390.4,323.8z"/>
	<path class="st0" d="M510.8,258.7c-0.4-4.1-1.9-6.3-9-7.1c-4.1-0.4-1.1-3.9,3.2-4.6c6-0.9,21.2-0.2,26.1,0.7
		c3.4,0.7,4.9,1.2,5.5,1.8c2.1,0,6.2,0,10.1-0.5c3.9-0.5,7.6-7.8,9-8.8c2.6-2.1,21.9,7.9,23.8,10.4c1.8,2.1-3.5,4.4-4.6,7.1
		l-2.3,14.3l11.1-0.4V231c0-4.6-4.8-9.5-11.3-11.1c-3.7-1.1-1.6-3.2,2.8-3.5c6.9-0.7,24,2.5,28.4,4.2c4.6,1.6,5.8,2.5,5.3,3.4
		s-1.6,3.4-1.6,8.6v105.8c0,5.3-9.9,9.3-17.1,9.3c-5.8,0-6.5-2.1-6.5-4.4v-65.1l-12.2,0.5l-2.8,18.5c3.5,0.9,6.5,2.6,6.5,4.9
		c0,3.7-4.2,3.5-9.2,3.5c-14.3,0-22.9,0.2-30,0.5c-4.2,3.7-21,7.8-21.3,2.1L510.8,258.7z M535.6,255.9v3.7l1.2,40.4
		c3.4,0,8.3,0.2,12.2-0.2l0.7-44.3L535.6,255.9z M641.6,346.9c0,5.3-11.5,9.3-18.7,9.3c-5.8,0-6.5-2.1-6.5-4.4V215
		c0-4.6-4.6-9.5-11.3-11.1c-3.7-1.1-1.6-3.2,2.8-3.7c6.9-0.5,25.7,3.5,30.2,5.1c4.6,1.8,5.8,2.6,5.3,3.4c-0.5,0.9-1.8,3.5-1.8,8.6
		V346.9z"/>
	<path class="st0" d="M723.7,234c-0.9,2.3-2.6,5.1-3.7,6.9c21,1.4,34.4,12.9,34.4,33.3c0,22.4-15.9,32.4-39.8,32.8
		c-24.5,0.4-40.4-10.4-40.4-32.8c0-20.1,13-31,34-33.1c0.4-1.2,0.7-3.2,0.7-4.6c-0.2-1.4-3-2.8-5.1-3.2c-1.9-0.4-0.2-3.3,4.4-3.3
		C713.5,230,724.5,232.3,723.7,234z M714.6,298.9c8.6,0,13.9-9,13.9-25.2c0-16.6-5.3-25.4-13.9-25.4c-8.8,0-14.1,8.8-14.1,25.4
		C700.5,289.9,705.8,298.9,714.6,298.9z M803.1,346.9c0,5.3-12.3,9.3-19.6,9.3c-5.8,0-6.5-2.1-6.5-4.4V215c0-4.6-4.8-9.5-11.3-11.1
		c-3.7-1.1-1.6-3.2,2.8-3.7c6.9-0.5,26.6,4.2,31,6c4.6,1.8,5.6,2.5,5.3,3.4c-0.5,0.9-1.8,3.4-1.8,8.6L803.1,346.9L803.1,346.9z"/>
	<path class="st0" d="M953.5,323.3c9.5-0.4,11.8-12,17.3-12c3,0,13.4,7.6,15.3,14.1c1.4,4.9-1.4,6.5-6.7,6.3
		c-33.7-1.9-81.5-1.2-118.1,1.1c-10.1,0.7-9.5,4.2-11.3,4.2c-4.2,0-17.8-6.3-21.2-11.1c-1.8-2.3-1.6-3.7,0.4-3.5
		c2.5,0.4,9.3,2.5,22.7,2.3L953.5,323.3z M860.9,241.3c0-3.9-1.9-6.2-8.5-6.5c-3.9-0.2-1.4-3.5,2.8-4.4c4.4-1.1,23.5,0,28.2,0.5
		c2.6,0.4,4.2,0.9,5.1,1.2c6.2,0,37.2,0.2,42.3-0.9c3.9-0.9,7.4-10.2,10.6-10.2c5.3,0,15.5,6.7,15.5,12c0,3.9-4.9,4.1-10.1,4.4
		c-4.6,0.2-46.9,0.9-58.5,0.9c-0.2,1.2-0.2,2.5-0.2,4.1l0.4,36c0,4.2,1.4,4.9,5.3,4.9c3.7,0,32.6,0,37.9-1.1
		c4.8-0.9,8.5-9.9,11.8-9.9c5.8,0,16.9,4.9,16.9,11.6c0,4.9-5.1,4.6-11.1,4.8c-15,0.4-47.3,0.9-68.9,0.9c-11.5,0-18.5,0.4-18.9-12.9
		L860.9,241.3z"/>
	<path class="st0" d="M93.2,505.6c9.3,0,30.9-0.4,39.7-0.7v-13c0-4.2-3.5-6.3-9-8.1c-4.1-1.2-1.1-3.4,3.9-3.5
		c5.8-0.2,20.8,1.8,26.4,3.7c5.8,1.8,7.1,2.8,6.5,3.7c-0.5,0.9-1.8,3.5-1.8,9v38.1c0,5.3-13,8.8-19.9,8.8c-5.5,0-6.2-1.9-6.2-4.1
		v-2.6c-1.9,0-4.4,0-7.2,0.2l-0.7,22.2l35.3-0.5c7.9-0.2,11.1-11.8,16.6-11.8c3,0,13.6,7.4,15.3,14.1c1.4,4.9-1.2,6.3-6.7,6
		c-38.6-1.9-106.3-1.1-127.7,1.6c-8.3,1.1-7.8,3.9-9.5,3.9c-4.2,0-17.6-6.3-21.2-10.9c-1.6-2.3-1.4-3.9,0.4-3.7
		c2.6,0.4,9.3,2.6,22.9,2.5l49.5-0.7l-0.7-22.2c-2.5,0.2-4.8,0.2-6.5,0.2c-2.5,4.1-12.5,6.9-18.7,6.9c-5.3,0-6-1.9-6-4.1l-0.9-43
		c0-4.2-4.2-6.9-9.9-7.9c-4.1-0.9-1.2-3.4,3.5-3.9c5.8-0.7,21.7,1.1,27.5,2.5c6,1.4,6.9,2.3,6.7,3.4c-0.4,1.1-1.8,1.6-1.8,8.6v5.3
		H93.2z M139.6,575.6c2.6-1.9,20.8,5.5,22.7,7.9c1.9,2.3-3,5.5-3,8.3v30.3c0,5.3-13,8.8-19.9,8.8c-5.5,0-6.2-1.8-6.2-4.1V589
		c-11.5,0.4-38.6-0.2-46.9,1.4c-7.1,1.2-5.8,3.2-7.4,3.2c-3.7,0-15.2-5.3-18.2-9.3c-1.4-1.8-1.2-3.2,0.4-3c2.3,0.4,7.9,1.8,19.7,1.9
		c11.3,0.2,43-0.2,50.3-0.9C135.2,581.8,138,576.7,139.6,575.6z M93.2,511.6v19.9c9.3,0,30.9-0.4,39.7-0.7v-19.7L93.2,511.6z"/>
	<path class="st0" d="M277.3,581.3c-0.4-0.7-0.4-1.4-0.4-2.3v-20.5c-18.5,0.4-34.4,1.2-42.8,2.3c-8.3,1.1-7.8,3.9-9.5,3.9
		c-4.2,0-17.6-6.3-21.2-11.1c-1.6-2.1-1.4-3.7,0.4-3.5c2.6,0.4,9.3,2.6,22.9,2.5l109.8-1.6c7.9-0.2,11.1-11.8,16.6-11.8
		c3,0,13.6,7.4,15.3,14.1c1.4,4.8-1.2,6.3-6.7,6c-16.4-0.7-37.7-1.1-58.7-1.1V574c0,2.5-2.6,4.8-6.3,6.3
		c19.6,0.7,34.4,7.9,34.4,25.2c0,19-17.8,24.9-40.4,25c-23.4,0.5-40.9-6-40.9-25C249.8,590.4,260.9,583.6,277.3,581.3z M342.7,532.3
		c-3.9,7.8-12.9,8.3-19.4,3c-9.2-7.1-17.1-15.9-33-22c-12.9,12.7-28.7,19.4-48,24.3c-3.4,1.1-12.5,1.9-16.8,1.6
		c-4.4-0.4-4.8-2.5-2.6-2.8c24.5-8.5,41.1-23.6,51.3-42.3c0.7-1.8,1.4-4.4-7.9-9.9c-4.2-2.3-2.3-3.2,1.2-3.4
		c9-0.5,31.2,5.5,36.9,8.3c4.4,2.6,1.8,3-0.5,7.1c-2.3,3.7-4.8,7.1-7.2,10.1c10.8,1.1,26.8,2.1,38.1,8.5
		C341.4,518.2,345.7,525.6,342.7,532.3z M290.7,623.9c7.9,0,13.8-5.3,13.8-18.9c0-13.4-5.8-18.7-13.8-18.7
		c-8.3,0-13.9,5.3-13.9,18.7C276.7,618.7,282.4,623.9,290.7,623.9z"/>
	<path class="st0" d="M436.8,508.3c-0.9,2.3-2.6,5.1-3.7,6.9c20.8,1.4,34.2,12.9,34.2,33.3c0,22.4-15.7,32.4-39.7,32.8
		c-24.5,0.4-40.4-10.4-40.4-32.8c0-20.1,13-30.9,33.9-33.1c0.5-1.2,0.9-3.2,0.9-4.6c-0.2-1.4-3-2.8-5.1-3.2
		c-1.9-0.4-0.2-3.3,4.4-3.3C426.6,504.2,437.3,506.5,436.8,508.3z M427.6,573.2c8.6,0,13.9-9,13.9-25.2c0-16.6-5.3-25.4-13.9-25.4
		c-8.8,0-14.1,8.8-14.1,25.4C413.5,564.2,418.8,573.2,427.6,573.2z M550.7,543.5c1.2,7.2-3.2,15.2-11.3,15.2
		c-8.8,0.4-16.8-5.6-25.9-6v68.4c0,5.3-12.3,9.3-19.6,9.3c-5.8,0-6.3-2.1-6.3-4.4V489.2c0-4.6-4.8-9.5-11.5-11.1
		c-3.7-1.1-1.4-3.2,3-3.7c6.7-0.5,26.4,4.2,30.9,6c4.6,1.8,5.8,2.5,5.3,3.4s-1.8,3.4-1.8,8.6v50.1c10.4-4.1,10.4-7.9,22.9-8.1
		C543.5,534.4,549.7,538.6,550.7,543.5z"/>
	<path class="st0" d="M660.7,508.3c-0.9,2.3-2.6,5.1-3.7,6.9c20.8,1.4,34.2,12.9,34.2,33.3c0,22.4-15.7,32.4-39.7,32.8
		c-24.5,0.4-40.4-10.4-40.4-32.8c0-20.1,13-30.9,33.9-33.1c0.5-1.2,0.9-3.2,0.9-4.6c-0.2-1.4-3-2.8-5.1-3.2
		c-1.9-0.4-0.2-3.3,4.4-3.3C650.5,504.2,661.2,506.5,660.7,508.3z M651.6,573.2c8.6,0,13.9-9,13.9-25.2c0-16.6-5.3-25.4-13.9-25.4
		c-8.8,0-14.1,8.8-14.1,25.4C637.4,564.2,642.7,573.2,651.6,573.2z M774.6,543.5c1.2,7.2-3.2,15.2-11.3,15.2
		c-8.8,0.4-16.8-5.6-25.9-6v68.4c0,5.3-12.3,9.3-19.6,9.3c-5.8,0-6.3-2.1-6.3-4.4V489.2c0-4.6-4.8-9.5-11.5-11.1
		c-3.7-1.1-1.4-3.2,3-3.7c6.7-0.5,26.4,4.2,30.9,6c4.6,1.8,5.8,2.5,5.3,3.4s-1.8,3.4-1.8,8.6v50.1c10.4-4.1,10.4-7.9,22.9-8.1
		C767.4,534.4,773.6,538.6,774.6,543.5z"/>
	<path class="st0" d="M837.9,508.3c-0.9,2.3-2.6,5.1-3.7,6.9c21,1.4,34.4,12.9,34.4,33.3c0,22.4-15.9,32.4-39.8,32.8
		c-24.5,0.4-40.4-10.4-40.4-32.8c0-20.1,13-31,34-33.1c0.4-1.2,0.7-3.2,0.7-4.6c-0.2-1.4-3-2.8-5.1-3.2c-1.9-0.4-0.2-3.3,4.4-3.3
		C827.7,504.2,838.6,506.5,837.9,508.3z M828.7,573.2c8.6,0,13.9-9,13.9-25.2c0-16.6-5.3-25.4-13.9-25.4c-8.8,0-14.1,8.8-14.1,25.4
		C814.6,564.2,819.9,573.2,828.7,573.2z M917.2,621.1c0,5.3-12.3,9.3-19.6,9.3c-5.8,0-6.5-2.1-6.5-4.4V489.2
		c0-4.6-4.8-9.5-11.3-11.1c-3.7-1.1-1.6-3.2,2.8-3.7c6.9-0.5,26.6,4.2,31,6c4.6,1.8,5.6,2.5,5.3,3.4c-0.5,0.9-1.8,3.4-1.8,8.6
		L917.2,621.1L917.2,621.1z"/>
	<path class="st0" d="M1068.5,599.1c9.5-0.4,11.8-11.8,17.3-11.8c3,0,13.4,7.4,15.3,14.1c1.4,4.9-1.4,6.3-6.7,6.2
		c-33.7-1.8-80.6-1.1-117.3,1.2c-10,0.7-9.5,4.2-11.3,4.2c-4.2,0-17.8-6.5-21.2-11.1c-1.8-2.3-1.6-3.9,0.4-3.7
		c2.5,0.4,9.3,2.6,22.7,2.5L1068.5,599.1z M1080.2,557.1c-3.9,8.5-14.1,9-20.8,3.4c-10.4-7.9-16.2-16.9-34.2-23.3
		c-14.1,14.5-31.4,22.6-50.6,28.2c-3.7,1.2-11.8,2.6-16.2,2.5c-4.6-0.2-5.1-2.5-3-3.2c25.2-9,47.3-32.6,57-54.7
		c1.1-1.9,1.8-5.1-8.5-11.3c-4.4-2.6-2.3-3.9,1.2-4.4c9.5-0.7,31.9,6.3,37.4,9.9c4.9,3,2.5,3.9-0.2,9c-3.4,6.3-6.9,11.8-10.8,16.8
		c10.9,1.1,27,1.1,40.4,8.3C1078.7,542.1,1083.3,550.1,1080.2,557.1z"/>
	<path class="st0" d="M1133.9,521.2c-0.2-5.1-4.6-6.5-10.6-7.1c-4.4-0.4-3-3.5,4.6-4.8c6.9-1.1,26.4,0.2,31.7,2.1
		c8.8,0,17.6-0.4,20.1-0.9c3.9-0.9,7.4-10.4,10.6-10.4c5.3,0,15.5,6.9,15.5,12c0,4.1-4.9,4.2-10.1,4.4c-3,0.2-20.5,0.5-35.8,0.7
		c-0.2,1.4-0.2,3-0.2,5.3v22.7c8.1,0,15.9-0.4,18.2-0.9c3.9-0.9,7.4-10.4,10.8-10.4c5.1,0,15.3,6.9,15.3,12c0,4.1-4.9,4.2-10.1,4.4
		c-2.8,0.2-19.4,0.5-34.2,0.7v23.8c0,3.4,1.6,3.5,4.6,3.5c14.1,0,43-6.5,54.7-11.8c3.4-1.6,4.8-1.1,1.8,3.5c-1.8,2.8-6,6.3-10.4,8.8
		c-15,7.6-39.5,17.6-65.2,19c-4.9,0.4-10.4-7.2-10.6-13.9L1133.9,521.2z M1252.2,621.1c0,5.3-12.3,9.3-19.7,9.3
		c-5.6,0-6.3-2.1-6.3-4.4V489.2c0-4.6-4.8-9.5-11.3-11.1c-3.9-1.1-1.6-3.2,2.8-3.7c6.7-0.5,26.6,4.2,31,6s5.6,2.5,5.1,3.4
		s-1.6,3.4-1.6,8.6V621.1z"/>
</g>
</svg>
